<svg xmlns="http://www.w3.org/2000/svg" width="19.529" height="25.702" viewBox="0 0 19.529 25.702">
  <path id="Icon_awesome-hiking" data-name="Icon awesome-hiking" d="M3.905,22.782a1.544,1.544,0,0,0,3,.749L8.119,18.66,5.573,16.114,3.905,22.782Zm.718-9.462L6.609,5.645a.757.757,0,0,0-.575-.92A3.966,3.966,0,0,0,1.243,7.483L.024,12.217a.757.757,0,0,0,.575.92l3.066.736a.793.793,0,0,0,.959-.552Zm13.13-5.6h-.772a.772.772,0,0,0-.772.772v.772H14.534L12.277,7.006A2.836,2.836,0,0,0,7.52,8.323l-1.3,5.2a1.544,1.544,0,0,0,.406,1.466l4.179,4.179v3.992a1.544,1.544,0,0,0,3.088,0V19.165a3.067,3.067,0,0,0-.9-2.183l-2.259-2.259c.007-.024.024-.043.03-.068l.96-3.839L12.8,11.9a1.544,1.544,0,0,0,1.091.453H16.21V23.93a.772.772,0,0,0,.772.772h.772a.772.772,0,0,0,.772-.772V8.491A.771.771,0,0,0,17.754,7.719ZM11.579,4.631A2.316,2.316,0,1,0,9.263,2.316,2.316,2.316,0,0,0,11.579,4.631Z" transform="translate(0.503 0.5)" fill="none" stroke="#000" stroke-width="1"/>
</svg>
