<svg xmlns="http://www.w3.org/2000/svg" xmlns:xlink="http://www.w3.org/1999/xlink" width="177.652" height="68.662" viewBox="0 0 177.652 68.662">
  <defs>
    <linearGradient id="linear-gradient" x1="0.092" y1="0.419" x2="0.908" y2="0.581" gradientUnits="objectBoundingBox">
      <stop offset="0" stop-color="#fff"/>
      <stop offset="0.313" stop-color="#fcfcfc"/>
      <stop offset="0.493" stop-color="#f4f4f4"/>
      <stop offset="0.639" stop-color="#e6e6e6"/>
      <stop offset="0.767" stop-color="#d2d2d2"/>
      <stop offset="0.883" stop-color="#b8b8b8"/>
      <stop offset="0.989" stop-color="#999"/>
      <stop offset="1" stop-color="#969696"/>
    </linearGradient>
    <linearGradient id="linear-gradient-2" x1="0.091" y1="0.449" x2="0.909" y2="0.551" xlink:href="#linear-gradient"/>
    <linearGradient id="linear-gradient-3" x1="0.004" y1="0.442" x2="0.857" y2="0.542" xlink:href="#linear-gradient"/>
    <linearGradient id="linear-gradient-4" x1="0.134" y1="0.453" x2="0.866" y2="0.547" xlink:href="#linear-gradient"/>
    <linearGradient id="linear-gradient-5" x1="0.095" y1="0.451" x2="0.906" y2="0.553" xlink:href="#linear-gradient"/>
    <linearGradient id="linear-gradient-6" x1="0.123" y1="0.462" x2="0.904" y2="0.569" xlink:href="#linear-gradient"/>
    <linearGradient id="linear-gradient-11" x1="0.039" y1="0.362" x2="0.927" y2="0.581" xlink:href="#linear-gradient"/>
    <linearGradient id="linear-gradient-12" x1="0.073" y1="0.419" x2="0.961" y2="0.638" xlink:href="#linear-gradient"/>
  </defs>
  <g id="Groupe_133" data-name="Groupe 133" transform="translate(-229.089 -639.371)">
    <path id="Tracé_57" data-name="Tracé 57" d="M329.886,668.594h-6.6l4.89-18.251-9.05,18.251H314.97l1.35-18.287-4.9,18.287H305.5l7.686-28.685h9.323L321.839,653l6.267-13.087h9.466Z" fill="url(#linear-gradient)"/>
    <path id="Tracé_58" data-name="Tracé 58" d="M354.41,645.718l-4.573,17.068a8.128,8.128,0,0,1-3.524,4.32,10.617,10.617,0,0,1-6.173,2.026,6.536,6.536,0,0,1-5.122-2.026,4.454,4.454,0,0,1-1.209-4.32l4.574-17.068a8.131,8.131,0,0,1,3.524-4.321,10.673,10.673,0,0,1,6.208-2.026A6.5,6.5,0,0,1,353.2,641.4,4.452,4.452,0,0,1,354.41,645.718ZM343.3,662.284l4.3-16.064a.924.924,0,0,0-.142-.879,1.056,1.056,0,0,0-.858-.341,1.809,1.809,0,0,0-1.06.341,1.537,1.537,0,0,0-.629.879l-4.3,16.064a.9.9,0,0,0,.159.878,1.11,1.11,0,0,0,.877.34,1.721,1.721,0,0,0,1.041-.34A1.561,1.561,0,0,0,343.3,662.284Z" fill="url(#linear-gradient-2)"/>
    <path id="Tracé_59" data-name="Tracé 59" d="M373.895,639.909,360.83,668.594h-6.1l2.308-28.685h6.884l-2.609,16.028,6.231-16.028Z" fill="url(#linear-gradient-3)"/>
    <path id="Tracé_60" data-name="Tracé 60" d="M380.479,668.594H367.5l7.686-28.685h12.98L386.8,645h-6.382l-1.653,6.168H383l-1.46,5.45h-4.231l-1.749,6.526h6.382Z" fill="url(#linear-gradient-4)"/>
    <path id="Tracé_61" data-name="Tracé 61" d="M406.741,663.872l-.369,1.378a5.19,5.19,0,0,1-1.811,2.844,4.907,4.907,0,0,1-3.111,1.038,4.83,4.83,0,0,1-1.76-.384,4.04,4.04,0,0,1-1.479-.925,7.382,7.382,0,0,1-4.188,1.309,4.493,4.493,0,0,1-3.508-1.354,3.581,3.581,0,0,1-.642-3.544,6.111,6.111,0,0,1,1.8-2.991,14.568,14.568,0,0,1,3.349-2.224q-.3-.993-.4-1.4a6.1,6.1,0,0,1-.142-1.151,4.8,4.8,0,0,1,.162-1.49,5.678,5.678,0,0,1,2.418-3.341,7.1,7.1,0,0,1,4.024-1.241,4.25,4.25,0,0,1,3.235,1.2,2.723,2.723,0,0,1,.724,2.731,7.577,7.577,0,0,1-1.664,3.093,11.131,11.131,0,0,1-3.674,2.505,12.764,12.764,0,0,0,.613,2.348,5.175,5.175,0,0,0,1.682-2.573h3.86a8.557,8.557,0,0,1-1.448,2.754,13.218,13.218,0,0,1-2.76,2.505.687.687,0,0,0,.764.519,1.188,1.188,0,0,0,1.22-1.015l.158-.588Zm-9.962,1.039a7.809,7.809,0,0,1-1.14-2.822,3.215,3.215,0,0,0-1.54,1.874,1.185,1.185,0,0,0,.144,1.106,1.464,1.464,0,0,0,1.189.406A2.226,2.226,0,0,0,396.779,664.911Zm4.216-10.09q.231-.858-.718-.858a1.6,1.6,0,0,0-.962.3,1.445,1.445,0,0,0-.559.824,2.708,2.708,0,0,0-.1.8,2.6,2.6,0,0,0,.077.6,7.274,7.274,0,0,0,.269.723,5.1,5.1,0,0,0,1.422-1.095A3.777,3.777,0,0,0,400.995,654.821Z" fill="#2c82ff"/>
    <path id="Tracé_62" data-name="Tracé 62" d="M311.944,707.495H308l-.533-1.22a8.013,8.013,0,0,1-2.232,1.238,7.494,7.494,0,0,1-2.685.52q-3.336,0-4.824-1.74a4.406,4.406,0,0,1-.815-4.249l4.765-17.785a7.489,7.489,0,0,1,3.423-4.141,11.129,11.129,0,0,1,6.25-1.847,6.919,6.919,0,0,1,5.229,1.829,4.133,4.133,0,0,1,1.126,4.159l-1.527,5.7H309.65l1.3-4.841a.9.9,0,0,0-.159-.878,1.209,1.209,0,0,0-.949-.341,1.9,1.9,0,0,0-1.09.323,1.516,1.516,0,0,0-.635.9l-4.4,16.422q-.327,1.219,1.072,1.22a1.606,1.606,0,0,0,1.76-1.22l1.048-3.908h-1.435l1.115-4.16H315.7Z" fill="url(#linear-gradient-5)"/>
    <path id="Tracé_63" data-name="Tracé 63" d="M330.445,707.495h-6.2a10.776,10.776,0,0,1,.367-4.447l1.566-5.845a.824.824,0,0,0-.148-.788,1.141,1.141,0,0,0-.917-.323H323.5l-3.055,11.4h-6.6l7.686-28.686h9.215a6.1,6.1,0,0,1,4.157,1.345q1.54,1.344.858,3.89l-1.671,6.239a5.188,5.188,0,0,1-3.44,3.335q2.363,1.22,1.8,3.335l-1.537,5.737A18.15,18.15,0,0,0,330.445,707.495ZM328,689.853l1.191-4.446q.308-1.147-.8-1.148h-1.721L324.861,691h1.721A1.365,1.365,0,0,0,328,689.853Z" fill="url(#linear-gradient-6)"/>
    <path id="Tracé_64" data-name="Tracé 64" d="M353.893,684.618l-4.573,17.068a8.129,8.129,0,0,1-3.524,4.32,10.617,10.617,0,0,1-6.173,2.027,6.537,6.537,0,0,1-5.122-2.027,4.451,4.451,0,0,1-1.209-4.32l4.573-17.068a8.132,8.132,0,0,1,3.525-4.321,10.673,10.673,0,0,1,6.208-2.026,6.5,6.5,0,0,1,5.087,2.026A4.453,4.453,0,0,1,353.893,684.618Zm-11.108,16.566,4.3-16.064a.922.922,0,0,0-.141-.878,1.056,1.056,0,0,0-.859-.341,1.808,1.808,0,0,0-1.059.341,1.537,1.537,0,0,0-.63.878l-4.3,16.064a.892.892,0,0,0,.159.878,1.109,1.109,0,0,0,.877.341,1.722,1.722,0,0,0,1.041-.341A1.562,1.562,0,0,0,342.785,701.184Z" fill="url(#linear-gradient-2)"/>
    <path id="Tracé_65" data-name="Tracé 65" d="M372.072,684.618,367.5,701.686a8.129,8.129,0,0,1-3.524,4.32,10.62,10.62,0,0,1-6.173,2.027,6.535,6.535,0,0,1-5.122-2.027,4.451,4.451,0,0,1-1.209-4.32l4.573-17.068a8.132,8.132,0,0,1,3.525-4.321,10.67,10.67,0,0,1,6.207-2.026,6.5,6.5,0,0,1,5.087,2.026A4.453,4.453,0,0,1,372.072,684.618Zm-11.108,16.566,4.3-16.064a.923.923,0,0,0-.141-.878,1.058,1.058,0,0,0-.859-.341,1.806,1.806,0,0,0-1.059.341,1.532,1.532,0,0,0-.63.878l-4.3,16.064a.892.892,0,0,0,.159.878,1.108,1.108,0,0,0,.876.341,1.723,1.723,0,0,0,1.042-.341A1.561,1.561,0,0,0,360.964,701.184Z" fill="url(#linear-gradient-2)"/>
    <path id="Tracé_66" data-name="Tracé 66" d="M391.557,678.809l-13.065,28.686h-6.1l2.308-28.686h6.884l-2.609,16.028,6.231-16.028Z" fill="url(#linear-gradient-3)"/>
    <path id="Tracé_67" data-name="Tracé 67" d="M398.141,707.495h-12.98l7.686-28.686h12.98l-1.364,5.092h-6.382l-1.653,6.167h4.231l-1.46,5.45h-4.231l-1.749,6.526H399.6Z" fill="url(#linear-gradient-4)"/>
    <path id="Tracé_68" data-name="Tracé 68" d="M237.334,656.465l48.04-16.556L250.116,676.5a12.221,12.221,0,0,1-19.064-1.847h0A12.22,12.22,0,0,1,237.334,656.465Z" fill="url(#linear-gradient-11)"/>
    <path id="Tracé_70" data-name="Tracé 70" d="M280.158,690.523l-48.04,16.556,35.258-36.59a12.22,12.22,0,0,1,19.064,1.847h0A12.22,12.22,0,0,1,280.158,690.523Z" fill="url(#linear-gradient-12)"/>
  </g>
</svg>
