<svg xmlns="http://www.w3.org/2000/svg" width="23.008" height="20.467" viewBox="0 0 23.008 20.467">
  <path id="rowing" d="M22.916,23.124l-1-1-.984-.984-1.266-1.266a5.993,5.993,0,0,0-4.74-1.744l-2.1-2.1,4.957-4.958,1.494-.236a.313.313,0,0,0,.173-.088l.923-.923a.315.315,0,0,0,0-.445l-2.22-2.22a.314.314,0,0,0-.445,0l-.923.923a.312.312,0,0,0-.088.173l-.236,1.493L11.5,14.709,6.546,9.751,6.309,8.258a.312.312,0,0,0-.088-.173L5.3,7.161a.314.314,0,0,0-.445,0l-2.22,2.22a.314.314,0,0,0,0,.445l.923.923a.312.312,0,0,0,.173.088l1.494.236,4.958,4.958-2.1,2.1a5.992,5.992,0,0,0-4.74,1.744L2.075,21.141l-.984.983-1,1a.314.314,0,0,0,0,.445l3.875,3.875a.314.314,0,0,0,.445,0l1-1,.984-.984L7.66,24.195A6,6,0,0,0,9.4,19.455l2.1-2.1,2.1,2.1a6,6,0,0,0,1.744,4.74l1.266,1.266.984.984,1,1a.314.314,0,0,0,.445,0l3.874-3.875a.314.314,0,0,0,0-.445ZM3.3,9.6,5.076,7.828l.629.629.211,1.335-.326.325-.326.326-1.335-.211Zm2.951.742,4.808,4.808-.433.433L5.819,10.779ZM17.3,8.457l.629-.629L19.708,9.6l-.629.629-1.335.211-.651-.651Zm-.547,1.889.433.433L9.079,18.89l-.433-.433ZM5.189,25.777l-3.43-3.43.539-.539,3.43,3.43Zm-1,1-3.43-3.43.554-.554,3.43,3.43ZM7.216,23.75,6.173,24.793,2.742,21.363l1.043-1.043A5.369,5.369,0,0,1,8.057,18.76l.719.719A5.37,5.37,0,0,1,7.216,23.75ZM17.6,25.561l-.322-.322,3.43-3.43.539.539-3.43,3.43Zm-5.221-9.084,1.98,1.98-.433.433-1.98-1.98Zm1.85,3,.719-.719a5.371,5.371,0,0,1,4.273,1.561l1.043,1.043-3.43,3.432-1.043-1.043A5.37,5.37,0,0,1,14.232,19.477Zm4.587,7.3-.554-.554,3.43-3.43.554.554Z" transform="translate(0 -7.069)"/>
</svg>
