<svg xmlns="http://www.w3.org/2000/svg" width="20.991" height="25.604" viewBox="0 0 20.991 25.604">
  <path id="Icon_awesome-running" data-name="Icon awesome-running" d="M13.071,4.613a2.307,2.307,0,1,0-2.307-2.307A2.307,2.307,0,0,0,13.071,4.613ZM5.463,15.256l-.711,1.659H1.538a1.538,1.538,0,1,0,0,3.076H5.26a2.3,2.3,0,0,0,2.12-1.4l.422-.986-.513-.3A4.576,4.576,0,0,1,5.463,15.256Zm12.99-4.492H16.337L15.085,8.205a4.611,4.611,0,0,0-2.969-2.448L8.7,4.741a4.594,4.594,0,0,0-3.885.824L2.909,7.026a1.538,1.538,0,0,0,1.871,2.44L6.688,8.005A1.5,1.5,0,0,1,7.9,7.71l.706.21-1.8,4.2a3.084,3.084,0,0,0,1.264,3.859l4.084,2.411-1.32,4.216a1.538,1.538,0,1,0,2.935.919l1.52-4.857a2.316,2.316,0,0,0-1.04-2.614l-2.943-1.737,1.5-3.762.974,1.991a2.321,2.321,0,0,0,2.072,1.292h2.595a1.538,1.538,0,1,0,0-3.075Z" transform="translate(0.5 0.5)" fill="none" stroke="#000" stroke-width="1"/>
</svg>
