<svg xmlns="http://www.w3.org/2000/svg" width="24.958" height="26.675" viewBox="0 0 24.958 26.675">
  <g id="snowboard" transform="translate(-38.412 -0.156)">
    <g id="ski" transform="translate(38.412 0.156)">
      <g id="Groupe_191" data-name="Groupe 191" transform="translate(0 0)">
        <path id="Tracé_84" data-name="Tracé 84" d="M41.334,24.751a.407.407,0,0,0-.563-.022l-.475.408a3.1,3.1,0,0,1-3.565.334l-6.486-3.737a2.7,2.7,0,0,0-.914-3.071l2.2-3.729,3.311,1.628a1.949,1.949,0,0,0,.867.2h0a1.969,1.969,0,0,0,1.937-2.326l.773.38a.4.4,0,0,0,.542-.208.406.406,0,0,0-.206-.51l-2.164-1.064-.014-.007L34.3,11.907l-.264-.13h0l-.551-.271.7-.7a1.96,1.96,0,0,0,.471-.754,4.512,4.512,0,0,0,2.189.533A4.546,4.546,0,0,0,36.788,1.5,4.516,4.516,0,0,0,34.71,2q0-.048,0-.1a1.905,1.905,0,1,0-1.905,1.905h.023a4.511,4.511,0,0,0-.57,1.837H25.172a3.1,3.1,0,0,0-2.046.73L23.1,6.4l-1.743-.857.295-.589a.405.405,0,0,0-.127-.518.4.4,0,0,0-.576.151l-.3.606-1.159-.57a.407.407,0,0,0-.54.163.4.4,0,0,0,.175.541l1.17.575-.279.558a.406.406,0,0,0,.148.533.4.4,0,0,0,.554-.165L21,6.253l1.558.766a3.281,3.281,0,0,0-.46,1.062,3.217,3.217,0,0,0,.159,1.983,3.1,3.1,0,0,0,1.507,1.565l.581.289a.4.4,0,1,0,.353-.709l-.581-.289a2.3,2.3,0,0,1-1.248-2.657,2.505,2.505,0,0,1,.408-.89l5.882,2.891-.4.4a1.968,1.968,0,0,0,.523,3.158l1.54.757-1.465,2.48L26.514,15.52l1.342-2.266a.4.4,0,0,0-.035-.454.407.407,0,0,0-.136-.106L26.33,12.02a.4.4,0,0,0-.353.709l.98.488-2.923,4.937-6.96-4.011a.4.4,0,0,0-.4.686L36.335,26.157a3.9,3.9,0,0,0,4.477-.419l.488-.419A.4.4,0,0,0,41.334,24.751Zm-5.1-11.008a1.176,1.176,0,0,1-1.044,2.107l-.44-.216,1.037-2.11Zm.55-3.946a3.72,3.72,0,0,1-2.044-.606,1.966,1.966,0,0,0-1.4-1.661,3.684,3.684,0,0,1-.286-1.091h5.593l-.03.634a.4.4,0,0,0,.377.415h.019a.4.4,0,0,0,.4-.377l.032-.672h1.08A3.759,3.759,0,0,1,36.788,9.8Zm0-7.507A3.753,3.753,0,0,1,39.92,3.978h-.792a.4.4,0,0,0,0,.792h1.192a3.723,3.723,0,0,1,.2.877H33.056a3.725,3.725,0,0,1,.2-.877h4.021a.4.4,0,1,0,0-.792H33.657A3.753,3.753,0,0,1,36.788,2.29Zm-3.981.728a1.113,1.113,0,1,1,1.113-1.113A1.114,1.114,0,0,1,32.808,3.019ZM23.893,6.792a2.342,2.342,0,0,1,1.279-.352h7.087a4.473,4.473,0,0,0,.214,1.038,1.957,1.957,0,0,0-1.075.55L29.753,9.672Zm5.737,6.323a1.176,1.176,0,0,1-.313-1.887l2.641-2.641a1.176,1.176,0,1,1,1.663,1.663l-1.087,1.087a.4.4,0,0,0,.105.636l1.252.615,1.19.585-1.037,2.11Zm-.088,8.213L24.721,18.55,26.11,16.2l2.842,1.542-.5.84a.4.4,0,0,0,.144.545l.039.023A1.916,1.916,0,0,1,29.542,21.328Z" transform="translate(-16.48 -0.001)"/>
      </g>
    </g>
  </g>
</svg>
