<svg xmlns="http://www.w3.org/2000/svg" width="22.444" height="26.799" viewBox="0 0 22.444 26.799">
  <g id="snowboard" transform="translate(-41.596 0.002)">
    <g id="Groupe_190" data-name="Groupe 190" transform="translate(41.596 -0.002)">
      <path id="Tracé_83" data-name="Tracé 83" d="M61.87,20.941l-3.5-.99,1.877-1.877a1.662,1.662,0,0,0,0-2.347l-3.614-3.614-.02-2.489A1.365,1.365,0,0,1,57,8.661a1.416,1.416,0,0,1,1.023-.422H62.2a1.778,1.778,0,0,0,1.778-1.811,1.8,1.8,0,0,0-1.81-1.747H59.147a.4.4,0,0,0,0,.794h1.665V7.444H58.029a2.218,2.218,0,0,0-1.578.641,2.154,2.154,0,0,0-.629,1.545l.019,2.342-2.657.69V8.871a3.821,3.821,0,0,0,3.4-3.4h.713a.4.4,0,0,0,0-.794H56.58a3.811,3.811,0,0,0-5.658-2.927,1.811,1.811,0,1,0-1.81,1.869c.052,0,.1,0,.154-.007a3.783,3.783,0,0,0-.272,1.066h-5.62A1.779,1.779,0,0,0,41.6,6.49a1.8,1.8,0,0,0,1.809,1.748H47.6a1.374,1.374,0,0,1,1.374,1.374v2.949a4,4,0,0,0,1.179,2.847L51.643,16.9l-.9.891-4.575-1.3a2.985,2.985,0,1,0-1.627,5.743l1.265.358a.4.4,0,1,0,.217-.764l-1.265-.358a2.19,2.19,0,0,1,1.194-4.215L50.1,18.433l-1.3,1.3a.4.4,0,0,0,0,.559L50.559,22.1a.4.4,0,0,0,.073.059l1.018,1.032a.394.394,0,0,0,.28.117h0a.4.4,0,0,0,.281-.116l.174-.174a1.983,1.983,0,0,0,.593-1.409,1.921,1.921,0,0,0-.314-1.043l1.1-1.092.3.084-.177.177a.4.4,0,0,0,0,.559L55.645,22.1a.4.4,0,0,0,.074.059l1.017,1.031a.4.4,0,0,0,.281.118h0a.4.4,0,0,0,.281-.116l.2-.2a1.94,1.94,0,0,0,.28-2.38l3.873,1.1a2.19,2.19,0,0,1-1.194,4.215l-12.6-3.571a.4.4,0,0,0-.217.764l12.6,3.571a2.985,2.985,0,0,0,1.627-5.743Zm.3-15.466a1.006,1.006,0,0,1,1.016.966.984.984,0,0,1-.984,1h-.593V5.475h.561ZM52.787,8.1A3.023,3.023,0,0,1,49.8,5.475h2.088v.42a.4.4,0,1,0,.794,0v-.42h1.211v.42a.4.4,0,1,0,.794,0v-.42h1.1A3.023,3.023,0,0,1,52.787,8.1Zm0-6.039A3.023,3.023,0,0,1,55.78,4.68H49.8A3.023,3.023,0,0,1,52.787,2.059Zm-3.675.769A1.017,1.017,0,1,1,50.13,1.81,1.018,1.018,0,0,1,49.112,2.827ZM43.968,7.444h-.562a1,1,0,0,1-1.015-.967.985.985,0,0,1,.984-1h.593Zm5.941,6.07a3.241,3.241,0,0,1-.142-.953V9.613A2.171,2.171,0,0,0,47.6,7.444H44.762V5.475h4.232a3.821,3.821,0,0,0,3.4,3.4v4Zm2.022,8.826-.8-.808a.4.4,0,0,0-.071-.057l-1.426-1.458L50.861,18.8l1.223,1.223-.231.23a.4.4,0,0,0,0,.562,1.14,1.14,0,0,1,.078,1.526Zm2.478-3.513.756-.753a1.662,1.662,0,0,0,0-2.347l-.6-.6a.077.077,0,0,1,.055-.132.652.652,0,0,1,.349.145L56.729,16.9l-2.022,2.012Zm2.608,3.513-.8-.808a.4.4,0,0,0-.071-.057l-1.426-1.458,1.239-1.233,1.228,1.228-.246.246a.4.4,0,0,0,0,.56A1.143,1.143,0,0,1,57.017,22.34Zm.735-2.89-1.227-1.227,1.047-1.042a.4.4,0,0,0,0-.562l-2.043-2.043a1.414,1.414,0,0,0-.911-.377A.872.872,0,0,0,54,15.687l.6.6a.866.866,0,0,1,0,1.223l-1.957,1.95-1.223-1.223,1.062-1.057a.4.4,0,0,0,0-.562l-1.773-1.773a3.252,3.252,0,0,1-.472-.6l5.88-1.528,3.568,3.568a.866.866,0,0,1,0,1.224Z" transform="translate(-41.596 0.002)"/>
    </g>
  </g>
</svg>
