<svg xmlns="http://www.w3.org/2000/svg" width="28.2" height="21.623" viewBox="0 0 28.2 21.623">
  <g id="hot-pool" transform="translate(0 -59.7)">
    <path id="Tracé_81" data-name="Tracé 81" d="M1.054,76.561c10.717-3.046,14.634,3.11,26.53,0a.826.826,0,1,0-.417-1.6,24.343,24.343,0,0,1-6.193.838l-2.4-3.86a3.7,3.7,0,1,0-.474-.764L14.827,65.9l4.863-1.4a2.444,2.444,0,0,0-1.355-4.7l-7.363,2.125a3,3,0,0,0-1.716,4.46l2.225,3.587c-1.6,1-6.692,4.151-6.747,4.189A24.453,24.453,0,0,0,.6,74.972a.826.826,0,0,0,.452,1.589Zm18.92-8.339a2.052,2.052,0,1,1,.089,2.9A2.051,2.051,0,0,1,19.974,68.222ZM13.321,69.8,10.66,65.51a1.344,1.344,0,0,1,.77-2l7.363-2.125a.792.792,0,1,1,.439,1.522L13.32,64.613a.827.827,0,0,0-.473,1.229l6.129,9.879c-3.855-.324-6.987-1.486-10.953-1.663l5.03-3.121a.826.826,0,0,0,.266-1.138Z" transform="translate(-0.002)"/>
    <path id="Tracé_82" data-name="Tracé 82" d="M27.164,390.822c-11.381,2.971-15.375-3.176-26.564,0a.826.826,0,0,0,.452,1.589c10.717-3.046,14.634,3.11,26.53,0a.826.826,0,0,0-.417-1.6Z" transform="translate(0 -311.999)"/>
  </g>
</svg>
