<svg xmlns="http://www.w3.org/2000/svg" width="26.451" height="25.584" viewBox="0 0 26.451 25.584">
  <g id="outline" transform="translate(-16 -16)">
    <path id="Tracé_71" data-name="Tracé 71" d="M42.018,38.982h-3.11a1.3,1.3,0,0,0-1.226-1.735h-2.6V36.38a.434.434,0,0,0-.24-.388l-1.574-.787-.974-2.921a2.941,2.941,0,0,0-1.153-1.51l-.589-.393-.01-.006-.007,0-2.06-1.236-.332-.663v-2.5H30.31a.434.434,0,0,0,.282-.1l1.886-1.617v.42a.434.434,0,0,0,.434.434h1.3a.431.431,0,0,0,.239-.072h0L38.246,22.5h3.338a.434.434,0,0,0,0-.867H38.246L34.455,19.11h0a.322.322,0,0,0-.211-.071l-.03,0h-1.3a.434.434,0,0,0-.434.434v1.555l-.7.7-2.019,1.212H27.839l-.565-.377V22.07a1.3,1.3,0,0,0,1.3-1.3h.434a.434.434,0,0,0,.421-.539l-.379-1.516a1.9,1.9,0,0,0,.392-1.16V16.433a.434.434,0,0,0-.571-.411l-.711.237a3.393,3.393,0,0,1-1.075.175H25.719a1.914,1.914,0,0,0-1.914,1.914v.942a1.9,1.9,0,0,0,.561,1.353l.307.307v.688H24.59a2.606,2.606,0,0,0-1.666.6L21.046,23.8H19.215l-.307-.307a.434.434,0,0,0-.307-.127h-.867a.434.434,0,0,0-.434.434v.434h-.867a.434.434,0,0,0-.421.539l.434,1.735a.434.434,0,0,0,.421.328h4.77a.434.434,0,0,0,.271-.1l1.463-1.171v3a.434.434,0,0,0,.434.434h.021a3.446,3.446,0,0,0,1.609,2.56l.789.493c.01.016,1.985,2.389,1.985,2.389l1.4,2.8H27.274a1.3,1.3,0,0,0-1.226,1.735H16.434a.434.434,0,1,0,0,.867H42.018a.434.434,0,1,0,0-.867Zm-7.805-1.735H32.376l.7-1.167,1.136.568ZM31.47,32.559l.967,2.9-.769,1.282-1.4-3.14a.434.434,0,0,0-.136-.171l-1.448-1.086,1.622-1.081.349.232a2.07,2.07,0,0,1,.811,1.062ZM25.54,23.8V22.447L27.274,23.6v1.069H24.587l.76-.506A.434.434,0,0,0,25.54,23.8Zm1.735,2.6H24.239v-.867h3.035Zm-3.035.867h3.035v.867H24.239Zm9.106-3.035v-.73l.16-.137h.273v.867Zm1.3-.377V20.279l2.687,1.791Zm-1.3-3.96h.434v.867h-.434Zm-3.469,3.9a.434.434,0,0,0,.223-.062l2.168-1.3a.436.436,0,0,0,.084-.065l.74-.74h.688V22.5a3.14,3.14,0,0,0-.716.1l-2.914,2.5H28.142V23.8Zm-1.735-3.9a.434.434,0,0,0-.434.434v.434a.434.434,0,0,1-.434.434h-.434a.434.434,0,0,0-.434.434v.346L25.54,21.4V20.082l1.047-1.047h1.65l.217.867Zm-3.469-1.555A1.047,1.047,0,0,1,25.719,17.3h1.366a4.259,4.259,0,0,0,1.35-.219l.14-.047v.52a1.039,1.039,0,0,1-.2.613h-1.97a.434.434,0,0,0-.307.127l-1.3,1.3a.428.428,0,0,0-.03.033l-.008.011-.018.025,0,0a1.046,1.046,0,0,1-.07-.377Zm-3.188,7.626H17.206l-.217-.867h.746a.434.434,0,0,0,.434-.434v-.434h.254l.307.307a.434.434,0,0,0,.307.127H21.2a.434.434,0,0,0,.278-.1l2-1.666a1.737,1.737,0,0,1,1.11-.4h.082v1.069ZM24.7,29.009h2.74l.314.628a.434.434,0,0,0,.165.178l1.581.949-1.8,1.2-1.8-1.128a2.584,2.584,0,0,1-1.2-1.825Zm4.263,5.01a.431.431,0,0,0-.055-.084l-.755-.906,1.373,1.029,1.418,3.19h-.366Zm-1.689,4.964a.434.434,0,0,1,0-.867H37.681a.434.434,0,1,1,0,.867Z" transform="translate(0 0)"/>
    <path id="Tracé_72" data-name="Tracé 72" d="M347.035,472h-2.6a.434.434,0,1,0,0,.867h2.6a.434.434,0,1,0,0-.867Z" transform="translate(-310.221 -431.284)"/>
    <path id="Tracé_73" data-name="Tracé 73" d="M297.3,472h-.867a.434.434,0,1,0,0,.867h.867a.434.434,0,1,0,0-.867Z" transform="translate(-264.823 -431.284)"/>
    <path id="Tracé_74" data-name="Tracé 74" d="M166.071,472h-5.637a.434.434,0,1,0,0,.867h5.637a.434.434,0,1,0,0-.867Z" transform="translate(-136.195 -431.284)"/>
    <path id="Tracé_75" data-name="Tracé 75" d="M425.3,472h-.867a.434.434,0,1,0,0,.867h.867a.434.434,0,0,0,0-.867Z" transform="translate(-385.885 -431.284)"/>
    <path id="Tracé_76" data-name="Tracé 76" d="M128,368.434a.434.434,0,0,0,.434.434H131.9a.434.434,0,1,0,0-.867h-3.469A.434.434,0,0,0,128,368.434Z" transform="translate(-105.929 -332.921)"/>
    <path id="Tracé_77" data-name="Tracé 77" d="M161.3,336.867a.434.434,0,0,0,0-.867h-.867a.434.434,0,1,0,0,.867Z" transform="translate(-136.195 -302.655)"/>
    <path id="Tracé_78" data-name="Tracé 78" d="M98.6,336H96.434a.434.434,0,1,0,0,.867H98.6a.434.434,0,0,0,0-.867Z" transform="translate(-75.664 -302.655)"/>
    <path id="Tracé_79" data-name="Tracé 79" d="M89.735,88h-1.3a.434.434,0,0,0,0,.867h1.3a.434.434,0,0,0,0-.867Z" transform="translate(-68.097 -68.098)"/>
    <path id="Tracé_80" data-name="Tracé 80" d="M48.434,56.867H51.9a.434.434,0,0,0,0-.867H48.434a.434.434,0,1,0,0,.867Z" transform="translate(-30.265 -37.832)"/>
  </g>
</svg>
