<svg xmlns="http://www.w3.org/2000/svg" width="21.774" height="23.409" viewBox="0 0 21.774 23.409">
  <g id="walk" transform="translate(-17.883 -0.002)">
    <g id="Groupe_194" data-name="Groupe 194" transform="translate(28.249 6.934)">
      <g id="Groupe_193" data-name="Groupe 193" transform="translate(0)">
        <path id="Tracé_85" data-name="Tracé 85" d="M245.341,151.641l-.349-.039a.343.343,0,1,0-.076.682l.349.039.038,0a.343.343,0,0,0,.037-.684Z" transform="translate(-244.611 -151.6)"/>
      </g>
    </g>
    <g id="Groupe_197" data-name="Groupe 197" transform="translate(17.883 0.002)">
      <g id="Groupe_196" data-name="Groupe 196" transform="translate(0 0)">
        <g id="Groupe_195" data-name="Groupe 195">
          <path id="Tracé_86" data-name="Tracé 86" d="M38.635,21.367H36.907a.343.343,0,0,0,0,.686h1.728a.336.336,0,0,1,0,.672H18.9a.336.336,0,0,1,0-.672h16.4a.343.343,0,0,0,0-.686H33.723a.983.983,0,0,0-.936-1.284H32.07l-1.556-4.259a.715.715,0,0,0,.433-.8.345.345,0,0,0-.011-.042l-.959-2.828a.333.333,0,0,0,.044,0,.658.658,0,0,0,.567-.767A9.84,9.84,0,0,1,30.5,9.137a1.311,1.311,0,0,0,1.052.624l3,.142a1.027,1.027,0,1,0,.119-2.05l-2.509-.119a.591.591,0,0,0-.054-.588L31.021,5.6c.015-.635-.684-1.018-1.084-.732a.224.224,0,0,1-.05-.143,2.453,2.453,0,0,0,1.553-2.189.343.343,0,0,0-.685-.025,1.761,1.761,0,1,1-.464-1.257.343.343,0,0,0,.5-.464,2.447,2.447,0,1,0-3.2,3.667.306.306,0,0,1-.134.157,1.239,1.239,0,0,0-.161-.1,2.449,2.449,0,0,0-2.026.062l-1.26.59a.507.507,0,0,0-.279.577,1.45,1.45,0,0,0-1.042.977l-.772,2.9a1.027,1.027,0,1,0,1.979.548l.62-2.332a.463.463,0,0,0,.525.056l.6-.327a36.123,36.123,0,0,0-.453,3.819.639.639,0,0,0,.215.521l-.356,1.165a.343.343,0,0,0,.656.2l.2-.649,1.351,2.583c-.239.593-.219.695-.3.675l-.239-.057-.736-.177c-.9-.227-.939-.2-.925-.246l.175-.573a.343.343,0,1,0-.648-.227l-.181.593a.707.707,0,0,0,.5.9l-1.292,4.641a1.062,1.062,0,0,0,.021.633H18.9a1.022,1.022,0,0,0,0,2.044h19.73a1.022,1.022,0,0,0,0-2.044ZM31.825,8.4c2.9.174,2.886.055,3.056.251a.344.344,0,0,1-.3.564l-3-.142c-.415-.02-.539-.388-.61-.467l.574-.368A.345.345,0,0,0,31.825,8.4ZM30.836,6.53l.656.931-.89.571h0l0,0C30.67,7.45,30.759,6.931,30.836,6.53Zm-.236,1.5Zm.874,12.42a.482.482,0,0,0,.451.316h.86a.3.3,0,0,1,0,.6s-1.416,0-1.43,0a.336.336,0,0,1-.345-.219L29.2,16.2l.649-.184ZM28.215,4.767a2.429,2.429,0,0,0,1,.118.809.809,0,0,0,.373.578.946.946,0,0,1-1.673-.23c-.008-.023-.018-.045-.027-.068A1.062,1.062,0,0,0,28.215,4.767Zm-4.249,2.5c-.781,2.8-.662,2.809-.889,2.934a.344.344,0,0,1-.489-.407l.772-2.9c.107-.4.5-.448.6-.5l.222.645A.345.345,0,0,0,23.966,7.271Zm1.919,4.11A34.813,34.813,0,0,1,26.3,7.85a.749.749,0,0,0-.253-.884.668.668,0,0,0-.679-.025l-.414.225-.5-1.449c.868-.346,1.369-.826,2.267-.686a.859.859,0,0,1,.266.088.6.6,0,0,1,.283.338,1.636,1.636,0,0,0,3.059.082.124.124,0,0,1,0,.072,16.58,16.58,0,0,0-.427,5.853Zm.517.7,2.846.059,1.027,3.03a.026.026,0,0,1-.019.021c-2.073.587-1.918.554-1.947.506Zm.494,4.487a.737.737,0,0,0,.768-.475L27.7,16a.738.738,0,0,0,.662.407.751.751,0,0,0,.185-.024l1.82,4.981H26.948a.975.975,0,0,0,.046-.3.988.988,0,0,0-.987-.987h-.092l.378-1.359Zm-2.622,4.353,1.3-4.664.654.157-1.089,3.912a.352.352,0,0,0,.339.447h.531a.3.3,0,0,1,.3.3.294.294,0,0,1-.293.293h-1.4a.331.331,0,0,1-.189-.039A.354.354,0,0,1,24.273,20.918Z" transform="translate(-17.883 -0.002)"/>
          <path id="Tracé_87" data-name="Tracé 87" d="M296.112,175.6Z" transform="translate(-283.391 -167.568)"/>
        </g>
      </g>
    </g>
  </g>
</svg>
