<svg xmlns="http://www.w3.org/2000/svg" width="18.878" height="24.192" viewBox="0 0 18.878 24.192">
  <path id="wheelchair" d="M75.076,21.741l-2.091-6.274a3.74,3.74,0,0,0-3.553-2.561H69.15a2.226,2.226,0,0,0-1.579-3.8H66V7.54a2.963,2.963,0,0,0-.74-1.966,2.987,2.987,0,1,0-3.733-.623,2.985,2.985,0,0,0-1.438,1.985A3.727,3.727,0,0,0,57.7,6.073h0a.709.709,0,1,0,0,1.418A2.33,2.33,0,0,1,60.03,9.818v1.5A6.782,6.782,0,1,0,69.24,20.1l.7,2.086a.709.709,0,0,0,.672.485h3.8a.709.709,0,0,0,.672-.933ZM63.775,1.417a1.569,1.569,0,1,1-1.569,1.569A1.57,1.57,0,0,1,63.775,1.417Zm-.759,21.357a5.365,5.365,0,0,1-2.534-10.094,2.237,2.237,0,0,0,1.775.883h4.5a5.363,5.363,0,0,1-3.738,9.211Zm4.555-10.628H62.257a.811.811,0,0,1-.81-.81V7.54a1.569,1.569,0,0,1,3.137,0V9.11h-.81a.709.709,0,0,0,0,1.418h3.8a.81.81,0,0,1,0,1.619Zm3.547,9.11L69.8,17.29a6.777,6.777,0,0,0-.743-2.967h.378a2.325,2.325,0,0,1,2.208,1.592l1.781,5.342h-2.3Z" transform="translate(-56.234)"/>
</svg>
